<?xml version="1.0" encoding="UTF-8"?>
<svg width="2560px" height="1440px" viewBox="0 0 2560 1440" version="1.1" xmlns="http://www.w3.org/2000/svg" xmlns:xlink="http://www.w3.org/1999/xlink">
    <title>YouTube Banner</title>
    <defs>
        <linearGradient x1="-1.17730996e-06%" y1="34.1796875%" x2="100.000001%" y2="65.8203125%" id="linearGradient-1">
            <stop stop-color="#001E34" offset="0%"></stop>
            <stop stop-color="#00528E" offset="100%"></stop>
        </linearGradient>
        <linearGradient x1="60.5601904%" y1="-3.53679211%" x2="39.4398096%" y2="103.536792%" id="linearGradient-2">
            <stop stop-color="#001E34" offset="0%"></stop>
            <stop stop-color="#00528E" offset="100%"></stop>
        </linearGradient>
        <filter id="filter-3">
            <feColorMatrix in="SourceGraphic" type="matrix" values="0 0 0 0 1.000000 0 0 0 0 1.000000 0 0 0 0 1.000000 0 0 0 1.000000 0"></feColorMatrix>
        </filter>
        <filter x="-16.8%" y="-16.8%" width="133.6%" height="133.6%" filterUnits="objectBoundingBox" id="filter-4">
            <feOffset dx="10" dy="8" in="SourceAlpha" result="shadowOffsetOuter1"></feOffset>
            <feGaussianBlur stdDeviation="9.5" in="shadowOffsetOuter1" result="shadowBlurOuter1"></feGaussianBlur>
            <feColorMatrix values="0 0 0 0 0   0 0 0 0 0.141176471   0 0 0 0 0.247058824  0 0 0 1 0" type="matrix" in="shadowBlurOuter1" result="shadowMatrixOuter1"></feColorMatrix>
            <feMerge>
                <feMergeNode in="shadowMatrixOuter1"></feMergeNode>
                <feMergeNode in="SourceGraphic"></feMergeNode>
            </feMerge>
        </filter>
    </defs>
    <g id="YouTube-Banner" stroke="none" stroke-width="1" fill="none" fill-rule="evenodd">
        <rect id="Rectangle" fill="url(#linearGradient-1)" fill-rule="nonzero" x="0" y="0" width="2560" height="1440"></rect>
        <path d="M461.867621,1609.68942 L536.887257,1960.03468 L271.42617,1719.79932 L103.847797,2036.66274 L54.9436682,1681.69626 L-276.821015,1816.81386 L-86.2854315,1513.209 L-427.000001,1403.35779 L-86.1783868,1293.17466 L461.867621,1609.68942 Z M1358,433.382202 L667.801619,1627.66274 L-222,1114.44181 L-120.089642,938.10185 L593.356113,1349.60121 L1181.64292,331.662739 L1358,433.382202 Z M1269.73768,-430.018375 C1411.22057,-348.307294 1498.78902,-248.358192 1532.44293,-130.171099 C1565.63586,-13.602996 1542.06406,115.468849 1461.72762,257.044483 L1458.34738,262.950678 L1406.28382,353.155982 L1230.0449,251.365536 L1301.63434,127.329694 C1303.99887,123.232918 1306.25585,119.103531 1308.40612,114.944748 C1308.90447,113.981003 1309.3967,113.0162 1309.88328,112.049895 C1313.1347,105.593138 1316.13136,99.0669934 1318.87624,92.484449 C1319.19957,91.7090053 1319.51706,90.9385252 1319.83112,90.1673 C1320.73874,87.9385242 1321.61975,85.6981066 1322.47199,83.4518309 C1323.34614,81.1477952 1324.18854,78.8419458 1325.00097,76.5304799 C1325.29088,75.705615 1325.57615,74.8823083 1325.85773,74.058364 C1327.6148,68.9156203 1329.2243,63.745787 1330.68774,58.5547302 C1331.30476,56.3658689 1331.89647,54.1708788 1332.46224,51.9725214 C1333.47395,48.0412329 1334.40216,44.1015767 1335.24825,40.153554 L1335.71216,37.9482937 C1336.18031,35.6801619 1336.62144,33.4094418 1337.03554,31.136498 C1337.20361,30.214416 1337.36726,29.2914784 1337.52659,28.3682624 C1337.66692,27.5543818 1337.80425,26.7383064 1337.93801,25.9219324 L1338.25604,23.9401854 C1338.32951,23.4725574 1338.4017,23.0054735 1338.47277,22.5383129 C1339.09847,18.4265645 1339.637,14.3083554 1340.08893,10.18753 C1340.18563,9.30582577 1340.27884,8.41979379 1340.36805,7.53366851 C1340.43672,6.85079417 1340.50311,6.16780641 1340.56708,5.48475502 C1340.64226,4.68290138 1340.71416,3.88024482 1340.78278,3.07754669 C1340.84105,2.3962214 1340.89685,1.71714851 1340.95023,1.03801199 C1341.01738,0.184364812 1341.08111,-0.672786489 1341.14102,-1.52999459 C1341.19118,-2.24629537 1341.23863,-2.96142621 1341.28351,-3.6765469 C1341.32853,-4.3930257 1341.37088,-5.1094926 1341.41064,-5.82593333 L1341.53626,-8.26768545 C1341.58052,-9.20287766 1341.62026,-10.1344998 1341.65566,-11.0660116 C1341.67655,-11.6170637 1341.69616,-12.1742157 1341.71424,-12.7313112 L1341.78418,-15.2078029 C1341.80383,-16.020589 1341.82028,-16.839872 1341.83334,-17.6590286 C1341.8982,-21.7297493 1341.88012,-25.7924109 1341.78003,-29.8492011 C1341.7669,-30.3796157 1341.7523,-30.9145018 1341.73625,-31.449301 C1341.72026,-31.9821585 1341.70292,-32.5117433 1341.68421,-33.0411869 C1341.59092,-35.6823517 1341.46286,-38.3213799 1341.30013,-40.9569811 C1341.25979,-41.6105034 1341.21686,-42.2702869 1341.17177,-42.9298289 C1341.12256,-43.6501558 1341.07102,-44.3664406 1341.01696,-45.0824227 C1340.92182,-46.3418427 1340.81879,-47.6001747 1340.70785,-48.8575771 C1340.69126,-49.0462846 1340.67413,-49.238115 1340.65686,-49.4299036 L1340.3769,-52.3744584 C1340.31286,-53.0143143 1340.24696,-53.6527999 1340.17899,-54.2910217 C1340.07941,-55.2257334 1339.9754,-56.1612767 1339.86698,-57.0962169 C1339.80717,-57.6116311 1339.74608,-58.1268499 1339.68368,-58.6418573 C1339.56164,-59.648694 1339.43457,-60.6547669 1339.30238,-61.6601061 L1339.15331,-62.778335 L1339.00011,-63.8953392 C1338.93202,-64.3851121 1338.86218,-64.8779806 1338.79124,-65.3705932 L1338.37071,-68.1944757 L1337.85502,-71.431441 C1337.80662,-71.7247554 1337.75738,-72.0208547 1337.70767,-72.316883 C1337.56797,-73.1484005 1337.42442,-73.9817581 1337.27738,-74.8144404 C1337.12364,-75.6852928 1336.96684,-76.5512032 1336.8062,-77.4163931 L1336.50197,-79.0310397 L1335.98079,-81.6912694 C1335.81479,-82.5192265 1335.6443,-83.3508926 1335.47045,-84.1817188 C1335.35967,-84.7107799 1335.248,-85.2373926 1335.13489,-85.7637201 C1334.93925,-86.673937 1334.73951,-87.582977 1334.53549,-88.4910912 L1334.25804,-89.7148111 L1333.58998,-92.5689831 C1333.40888,-93.325995 1333.22477,-94.0829577 1333.03768,-94.8392219 C1332.80259,-95.7895329 1332.56371,-96.7356912 1332.32021,-97.6806959 C1331.77112,-99.8115945 1331.19858,-101.937386 1330.60289,-104.05675 L1329.94888,-106.3488 C1329.74569,-107.050507 1329.53921,-107.75392 1329.33017,-108.456602 C1329.12791,-109.136417 1328.92392,-109.813413 1328.71758,-110.489682 L1328.06797,-112.591145 C1327.81851,-113.387756 1327.56425,-114.188269 1327.30654,-114.987806 C1327.07349,-115.71106 1326.83827,-116.431678 1326.60032,-117.151435 C1326.34424,-117.926031 1326.08538,-118.698593 1325.82338,-119.470144 C1325.5855,-120.170595 1325.34517,-120.86977 1325.1023,-121.568071 C1324.90377,-122.139048 1324.70297,-122.710916 1324.50037,-123.282255 C1324.16074,-124.240202 1323.81617,-125.196832 1323.46671,-126.151821 L1322.76894,-128.039165 L1322.0654,-129.903953 C1321.74227,-130.752057 1321.41536,-131.598443 1321.08465,-132.443418 C1320.75141,-133.294925 1320.41361,-134.146501 1320.07196,-134.996579 C1319.87672,-135.482393 1319.68284,-135.961141 1319.48773,-136.439418 C1319.1995,-137.146081 1318.90708,-137.855309 1318.61184,-138.56354 C1318.26424,-139.397569 1317.91363,-140.22825 1317.5592,-141.057482 C1317.3598,-141.524056 1317.15926,-141.990153 1316.95742,-142.455832 L1315.77548,-145.147332 L1315.07658,-146.706089 C1314.62959,-147.695476 1314.1777,-148.681564 1313.72043,-149.665369 L1313.1196,-150.950071 C1312.7825,-151.666459 1312.44285,-152.380849 1312.10044,-153.093948 C1311.66027,-154.010582 1311.21394,-154.928028 1310.76296,-155.843329 C1310.52813,-156.319785 1310.29567,-156.788485 1310.06193,-157.256641 L1308.50349,-160.333829 L1308.0426,-161.227339 L1306.47243,-164.217962 L1305.82846,-165.421438 C1305.44341,-166.137101 1305.05477,-166.852467 1304.66308,-167.566436 C1304.19495,-168.419829 1303.72189,-169.272443 1303.24452,-170.122974 C1303.0277,-170.509218 1302.81344,-170.888979 1302.59838,-171.268282 C1302.13178,-172.091198 1301.65794,-172.917675 1301.18013,-173.742066 C1300.68054,-174.603873 1300.17883,-175.459597 1299.6728,-176.313014 L1299.20038,-177.106967 L1298.4582,-178.343126 C1298.13394,-178.880229 1297.80797,-179.4164 1297.48028,-179.951623 L1296.78418,-181.082941 C1296.6485,-181.302381 1296.51252,-181.521666 1296.37624,-181.740804 C1296.0091,-182.331122 1295.64064,-182.918961 1295.27018,-183.505563 L1293.95125,-185.57495 C1293.49424,-186.285674 1293.03305,-186.996196 1292.56871,-187.704945 C1292.17869,-188.300219 1291.78869,-188.89091 1291.39657,-189.480322 C1290.96001,-190.13653 1290.51771,-190.795578 1290.07277,-191.453005 C1289.67498,-192.040738 1289.27707,-192.624189 1288.87695,-193.206398 C1288.45734,-193.817031 1288.03428,-194.427798 1287.60881,-195.037162 C1285.45235,-198.125679 1283.2353,-201.176959 1280.95748,-204.189946 L1280.27739,-205.086013 C1279.74304,-205.787287 1279.20544,-206.486446 1278.66449,-207.183506 C1278.39105,-207.535868 1278.1207,-207.882659 1277.84959,-208.228883 C1277.28563,-208.949005 1276.71392,-209.672155 1276.13861,-210.392964 C1275.72342,-210.913164 1275.30683,-211.431501 1274.88853,-211.948527 C1274.34657,-212.618295 1273.80294,-213.284247 1273.25628,-213.948079 C1272.78765,-214.517097 1272.31841,-215.082632 1271.8469,-215.64664 C1271.55231,-215.999006 1271.25299,-216.355387 1270.95269,-216.711189 C1269.18836,-218.801687 1267.39657,-220.866651 1265.57402,-222.90958 C1265.12238,-223.41585 1264.67022,-223.919202 1264.21621,-224.421184 C1263.73148,-224.957115 1263.24467,-225.491466 1262.75576,-226.024229 C1262.01012,-226.836707 1261.25774,-227.64749 1260.50035,-228.4546 C1260.14202,-228.836437 1259.78583,-229.214019 1259.42853,-229.590799 L1257.77471,-231.320904 C1257.20889,-231.908072 1256.64141,-232.492161 1256.07133,-233.074154 C1255.66114,-233.49291 1255.2506,-233.909583 1254.83862,-234.325233 C1254.09306,-235.077503 1253.34051,-235.828779 1252.5833,-236.576609 C1252.41132,-236.746476 1252.24361,-236.911726 1252.07561,-237.076836 C1251.14879,-237.987904 1250.21128,-238.897473 1249.26702,-239.801644 C1249.07377,-239.986672 1248.88145,-240.170343 1248.6888,-240.353811 C1246.63533,-242.309584 1244.54909,-244.2408 1242.43116,-246.145787 L1240.3325,-248.015695 C1239.84373,-248.447093 1239.35388,-248.876611 1238.86236,-249.304737 C1238.34733,-249.753364 1237.83039,-250.200549 1237.31162,-250.646221 C1236.56449,-251.288068 1235.81583,-251.924863 1235.06349,-252.558435 C1232.94939,-254.338847 1230.80135,-256.097655 1228.62412,-257.830315 C1228.34328,-258.053821 1228.05946,-258.278832 1227.77525,-258.503352 C1224.62591,-260.991069 1221.41902,-263.422014 1218.15222,-265.79634 C1214.87265,-268.180012 1211.53007,-270.508371 1208.12769,-272.777345 C1207.97938,-272.876255 1207.83021,-272.975532 1207.68096,-273.074681 C1204.16116,-275.412988 1200.5775,-277.687865 1196.93072,-279.896857 L1191.41311,-283.160723 C1049.05974,-365.374524 867.509408,-318.03312 783.437586,-177.681668 L780.919966,-173.400142 L122.631532,967.150124 L-69.6322367,856.111415 L585.004834,-278.112514 C614.32391,-328.894643 650.649812,-374.689597 694.003356,-415.485382 C737.356981,-456.28112 787.561008,-486.066891 844.615516,-504.842649 C901.67002,-523.618398 965.56494,-528.09827 1036.30019,-518.282293 C1107.03543,-508.466316 1184.84129,-479.033326 1269.73768,-430.018375 Z" id="Combined-Shape" fill="url(#linearGradient-2)" fill-rule="nonzero"></path>
        <path d="M1839.86762,1609.68942 L1914.88726,1960.03468 L1649.42617,1719.79932 L1481.8478,2036.66274 L1432.94367,1681.69626 L1101.17899,1816.81386 L1291.71457,1513.209 L951,1403.35779 L1291.82161,1293.17466 L1839.86762,1609.68942 Z M2736,433.382202 L2045.80162,1627.66274 L1156,1114.44181 L1257.91036,938.10185 L1971.35611,1349.60121 L2559.64292,331.662739 L2736,433.382202 Z M2647.73768,-430.018375 C2789.22057,-348.307294 2876.78902,-248.358192 2910.44293,-130.171099 C2943.63586,-13.602996 2920.06406,115.468849 2839.72762,257.044483 L2836.34738,262.950678 L2784.28382,353.155982 L2608.0449,251.365536 L2679.63434,127.329694 C2681.99887,123.232918 2684.25585,119.103531 2686.40612,114.944748 C2686.90447,113.981003 2687.3967,113.0162 2687.88328,112.049895 C2691.1347,105.593138 2694.13136,99.0669934 2696.87624,92.484449 C2697.19957,91.7090053 2697.51706,90.9385252 2697.83112,90.1673 C2698.73874,87.9385242 2699.61975,85.6981066 2700.47199,83.4518309 C2701.34614,81.1477952 2702.18854,78.8419458 2703.00097,76.5304799 C2703.29088,75.705615 2703.57615,74.8823083 2703.85773,74.058364 C2705.6148,68.9156203 2707.2243,63.745787 2708.68774,58.5547302 C2709.30476,56.3658689 2709.89647,54.1708788 2710.46224,51.9725214 C2711.47396,48.0412329 2712.40216,44.1015767 2713.24825,40.153554 L2713.71216,37.9482937 C2714.18031,35.6801619 2714.62144,33.4094418 2715.03554,31.136498 C2715.20361,30.214416 2715.36726,29.2914784 2715.52659,28.3682624 C2715.66692,27.5543818 2715.80425,26.7383064 2715.93801,25.9219324 L2716.25604,23.9401854 C2716.32951,23.4725574 2716.4017,23.0054735 2716.47277,22.5383129 C2717.09847,18.4265645 2717.637,14.3083554 2718.08893,10.18753 C2718.18563,9.30582577 2718.27884,8.41979379 2718.36805,7.53366851 C2718.43672,6.85079417 2718.50311,6.16780641 2718.56708,5.48475502 C2718.64226,4.68290138 2718.71416,3.88024482 2718.78278,3.07754669 C2718.84105,2.3962214 2718.89685,1.71714851 2718.95023,1.03801199 C2719.01738,0.184364812 2719.08111,-0.672786489 2719.14103,-1.52999459 C2719.19118,-2.24629537 2719.23863,-2.96142621 2719.28351,-3.6765469 C2719.32853,-4.3930257 2719.37088,-5.1094926 2719.41064,-5.82593333 L2719.53626,-8.26768545 C2719.58052,-9.20287766 2719.62026,-10.1344998 2719.65566,-11.0660116 C2719.67655,-11.6170637 2719.69616,-12.1742157 2719.71424,-12.7313112 L2719.78418,-15.2078029 C2719.80383,-16.020589 2719.82028,-16.839872 2719.83334,-17.6590286 C2719.8982,-21.7297493 2719.88012,-25.7924109 2719.78003,-29.8492011 C2719.7669,-30.3796157 2719.7523,-30.9145018 2719.73625,-31.449301 C2719.72026,-31.9821585 2719.70292,-32.5117433 2719.68421,-33.0411869 C2719.59092,-35.6823517 2719.46286,-38.3213799 2719.30013,-40.9569811 C2719.25979,-41.6105034 2719.21687,-42.2702869 2719.17177,-42.9298289 C2719.12257,-43.6501558 2719.07102,-44.3664406 2719.01696,-45.0824227 C2718.92182,-46.3418427 2718.81879,-47.6001747 2718.70785,-48.8575771 C2718.69126,-49.0462846 2718.67413,-49.238115 2718.65686,-49.4299036 L2718.3769,-52.3744584 C2718.31286,-53.0143143 2718.24696,-53.6527999 2718.17899,-54.2910217 C2718.07941,-55.2257334 2717.9754,-56.1612767 2717.86698,-57.0962169 C2717.80717,-57.6116311 2717.74608,-58.1268499 2717.68368,-58.6418573 C2717.56164,-59.648694 2717.43457,-60.6547669 2717.30238,-61.6601061 L2717.15331,-62.778335 L2717.00011,-63.8953392 C2716.93202,-64.3851121 2716.86218,-64.8779806 2716.79124,-65.3705932 L2716.37071,-68.1944757 L2715.85502,-71.431441 C2715.80662,-71.7247554 2715.75738,-72.0208547 2715.70767,-72.316883 C2715.56797,-73.1484005 2715.42442,-73.9817581 2715.27738,-74.8144404 C2715.12364,-75.6852928 2714.96684,-76.5512032 2714.8062,-77.4163931 L2714.50197,-79.0310397 L2713.98079,-81.6912694 C2713.81479,-82.5192265 2713.6443,-83.3508926 2713.47045,-84.1817188 C2713.35967,-84.7107799 2713.248,-85.2373926 2713.13489,-85.7637201 C2712.93925,-86.673937 2712.73951,-87.582977 2712.5355,-88.4910912 L2712.25804,-89.7148111 L2711.58998,-92.5689831 C2711.40888,-93.325995 2711.22477,-94.0829577 2711.03768,-94.8392219 C2710.80259,-95.7895329 2710.56371,-96.7356912 2710.32021,-97.6806959 C2709.77112,-99.8115945 2709.19858,-101.937386 2708.60289,-104.05675 L2707.94888,-106.3488 C2707.74569,-107.050507 2707.53921,-107.75392 2707.33017,-108.456602 C2707.12791,-109.136417 2706.92392,-109.813413 2706.71758,-110.489682 L2706.06797,-112.591145 C2705.81851,-113.387756 2705.56425,-114.188269 2705.30654,-114.987806 C2705.07349,-115.71106 2704.83827,-116.431678 2704.60032,-117.151435 C2704.34424,-117.926031 2704.08538,-118.698593 2703.82338,-119.470144 C2703.5855,-120.170595 2703.34517,-120.86977 2703.1023,-121.568071 C2702.90377,-122.139048 2702.70297,-122.710916 2702.50037,-123.282255 C2702.16074,-124.240202 2701.81618,-125.196832 2701.46671,-126.151821 L2700.76894,-128.039165 L2700.0654,-129.903953 C2699.74227,-130.752057 2699.41536,-131.598443 2699.08465,-132.443418 C2698.75141,-133.294925 2698.41361,-134.146501 2698.07196,-134.996579 C2697.87672,-135.482393 2697.68284,-135.961141 2697.48774,-136.439418 C2697.1995,-137.146081 2696.90708,-137.855309 2696.61184,-138.56354 C2696.26424,-139.397569 2695.91363,-140.22825 2695.5592,-141.057482 C2695.3598,-141.524056 2695.15926,-141.990153 2694.95742,-142.455832 L2693.77549,-145.147332 L2693.07658,-146.706089 C2692.62959,-147.695476 2692.1777,-148.681564 2691.72043,-149.665369 L2691.1196,-150.950071 C2690.7825,-151.666459 2690.44286,-152.380849 2690.10044,-153.093948 C2689.66027,-154.010582 2689.21394,-154.928028 2688.76296,-155.843329 C2688.52813,-156.319785 2688.29567,-156.788485 2688.06193,-157.256641 L2686.50349,-160.333829 L2686.0426,-161.227339 L2684.47243,-164.217962 L2683.82846,-165.421438 C2683.44341,-166.137101 2683.05477,-166.852467 2682.66308,-167.566436 C2682.19495,-168.419829 2681.72189,-169.272443 2681.24452,-170.122974 C2681.0277,-170.509218 2680.81344,-170.888979 2680.59838,-171.268282 C2680.13178,-172.091198 2679.65794,-172.917675 2679.18013,-173.742066 C2678.68054,-174.603873 2678.17883,-175.459597 2677.6728,-176.313014 L2677.20038,-177.106967 L2676.4582,-178.343126 C2676.13394,-178.880229 2675.80797,-179.4164 2675.48028,-179.951623 L2674.78418,-181.082941 C2674.64851,-181.302381 2674.51252,-181.521666 2674.37624,-181.740804 C2674.0091,-182.331122 2673.64064,-182.918961 2673.27018,-183.505563 L2671.95125,-185.57495 C2671.49424,-186.285674 2671.03305,-186.996196 2670.56871,-187.704945 C2670.17869,-188.300219 2669.78869,-188.89091 2669.39657,-189.480322 C2668.96001,-190.13653 2668.51771,-190.795578 2668.07278,-191.453005 C2667.67498,-192.040738 2667.27707,-192.624189 2666.87695,-193.206398 C2666.45734,-193.817031 2666.03428,-194.427798 2665.60882,-195.037162 C2663.45235,-198.125679 2661.2353,-201.176959 2658.95748,-204.189946 L2658.27739,-205.086013 C2657.74304,-205.787287 2657.20544,-206.486446 2656.66449,-207.183506 C2656.39105,-207.535868 2656.1207,-207.882659 2655.84959,-208.228883 C2655.28563,-208.949005 2654.71392,-209.672155 2654.13862,-210.392964 C2653.72342,-210.913164 2653.30684,-211.431501 2652.88853,-211.948527 C2652.34657,-212.618295 2651.80294,-213.284247 2651.25628,-213.948079 C2650.78765,-214.517097 2650.31841,-215.082632 2649.8469,-215.64664 C2649.55231,-215.999006 2649.25299,-216.355387 2648.95269,-216.711189 C2647.18836,-218.801687 2645.39657,-220.866651 2643.57402,-222.90958 C2643.12238,-223.41585 2642.67022,-223.919202 2642.21621,-224.421184 C2641.73148,-224.957115 2641.24467,-225.491466 2640.75576,-226.024229 C2640.01012,-226.836707 2639.25774,-227.64749 2638.50035,-228.4546 C2638.14202,-228.836437 2637.78583,-229.214019 2637.42853,-229.590799 L2635.77471,-231.320904 C2635.2089,-231.908072 2634.64141,-232.492161 2634.07133,-233.074154 C2633.66114,-233.49291 2633.2506,-233.909583 2632.83862,-234.325233 C2632.09306,-235.077503 2631.34051,-235.828779 2630.5833,-236.576609 C2630.41132,-236.746476 2630.24361,-236.911726 2630.07562,-237.076836 C2629.14879,-237.987904 2628.21128,-238.897473 2627.26702,-239.801644 C2627.07378,-239.986672 2626.88146,-240.170343 2626.6888,-240.353811 C2624.63533,-242.309584 2622.54909,-244.2408 2620.43116,-246.145787 L2618.3325,-248.015695 C2617.84373,-248.447093 2617.35388,-248.876611 2616.86236,-249.304737 C2616.34733,-249.753364 2615.83039,-250.200549 2615.31162,-250.646221 C2614.56449,-251.288068 2613.81583,-251.924863 2613.06349,-252.558435 C2610.94939,-254.338847 2608.80135,-256.097655 2606.62412,-257.830315 C2606.34328,-258.053821 2606.05946,-258.278832 2605.77525,-258.503352 C2602.62591,-260.991069 2599.41902,-263.422014 2596.15222,-265.79634 C2592.87265,-268.180012 2589.53007,-270.508371 2586.12769,-272.777345 C2585.97938,-272.876255 2585.83021,-272.975532 2585.68096,-273.074681 C2582.16116,-275.412988 2578.5775,-277.687865 2574.93072,-279.896857 L2569.41311,-283.160723 C2427.05974,-365.374524 2245.50941,-318.03312 2161.43759,-177.681668 L2158.91997,-173.400142 L1500.63153,967.150124 L1308.36776,856.111415 L1963.00483,-278.112514 C1992.32391,-328.894643 2028.64981,-374.689597 2072.00336,-415.485382 C2115.35698,-456.28112 2165.56101,-486.066891 2222.61552,-504.842649 C2279.67002,-523.618398 2343.56494,-528.09827 2414.30019,-518.282293 C2485.03543,-508.466316 2562.84129,-479.033326 2647.73768,-430.018375 Z" id="Combined-Shape-Copy-2" fill="url(#linearGradient-2)" fill-rule="nonzero"></path>
        <g filter="url(#filter-3)" id="Group-Copy">
            <g filter="url(#filter-4)" transform="translate(560.000000, 544.000000)"></g>
        </g>
    </g>
</svg>