<?xml version="1.0" encoding="UTF-8"?>
<svg width="367px" height="367px" viewBox="0 0 367 367" version="1.1" xmlns="http://www.w3.org/2000/svg" xmlns:xlink="http://www.w3.org/1999/xlink">
    <title>Group Copy</title>
    <defs>
        <filter id="filter-1">
            <feColorMatrix in="SourceGraphic" type="matrix" values="0 0 0 0 1.000000 0 0 0 0 1.000000 0 0 0 0 1.000000 0 0 0 1.000000 0"></feColorMatrix>
        </filter>
    </defs>
    <g id="Website-Placeholder" stroke="none" stroke-width="1" fill="none" fill-rule="evenodd">
        <g id="Group-Copy" transform="translate(-193.000000, -256.000000)" filter="url(#filter-1)">
            <g transform="translate(193.000000, 256.000000)">
                <path d="M183.5,0 C284.844252,0 367,82.1557484 367,183.5 C367,284.844252 284.844252,367 183.5,367 C82.1557484,367 0,284.844252 0,183.5 C0,82.1557484 82.1557484,0 183.5,0 Z M108.766288,245.704488 L69.8190034,258.356098 L108.721273,270.86816 L86.9118169,305.617541 L124.828275,290.115716 L130.36153,330.703245 L149.55064,294.441006 L179.837538,321.875329 L171.320512,281.820186 L108.766288,245.704488 Z M253.592559,136.036349 L186.518782,252.211538 L105.1666,205.243154 L93.5472463,225.368465 L195.008784,283.947311 L273.702053,147.646571 L253.592559,136.036349 Z M237.274893,38.9349794 C229.200063,37.8219229 221.904454,38.3417337 215.388077,40.4944154 C208.871699,42.647098 203.136106,46.0571462 198.181289,50.724555 C193.22648,55.3919689 189.072629,60.6293582 185.719741,66.4367297 L185.719741,66.4367297 L110.838592,196.134684 L132.776222,208.80038 L208.075034,78.3790123 L208.363004,77.8894162 C217.978969,61.8399189 238.712887,56.4074859 254.955654,65.785252 L254.955654,65.785252 L255.585214,66.1575634 C256.001305,66.4095552 256.410181,66.6690841 256.811759,66.9358695 C256.828787,66.9471817 256.845806,66.9585086 256.862727,66.9697938 C257.250907,67.2286704 257.632252,67.4943407 258.006396,67.7663399 C258.379084,68.0372727 258.744925,68.3146832 259.104188,68.5985884 C259.136609,68.6242114 259.168986,68.6498904 259.201023,68.6753977 C259.44939,68.8731358 259.694421,69.0738657 259.935575,69.2770686 C260.021394,69.3493797 260.106792,69.4220597 260.192015,69.4953171 C260.25119,69.546184 260.310155,69.5972241 260.368903,69.6484292 C260.424968,69.6972944 260.480843,69.7463188 260.536594,69.7955582 L260.536594,69.7955582 L260.775974,70.0089905 C261.01755,70.2264291 261.255503,70.4468691 261.489714,70.6701194 C261.511687,70.6910622 261.533622,70.7120283 261.555663,70.7331492 C261.66336,70.8363604 261.770287,70.9401894 261.875993,71.0441908 C261.895153,71.0630388 261.91428,71.0819027 261.933895,71.1012936 C262.020256,71.1866614 262.106084,71.2724236 262.191115,71.3583002 C262.2381,71.4057495 262.284921,71.4533158 262.331702,71.5011201 C262.396718,71.5675593 262.461438,71.6342383 262.525966,71.7012695 L262.525966,71.7012695 L262.714575,71.8987799 L262.714575,71.8987799 L262.836808,72.0284913 C262.923182,72.1206335 263.008984,72.213196 263.094015,72.3059531 C263.14977,72.3667764 263.205285,72.4277813 263.260562,72.4889672 C263.312336,72.5462771 263.363898,72.6037438 263.415401,72.6615441 C263.623236,72.8947829 263.827554,73.1305436 264.028736,73.3692257 C264.062978,73.4098493 264.097109,73.4505391 264.1307,73.4907708 C264.184464,73.5551668 264.237969,73.6197376 264.291403,73.6847065 C264.353736,73.7605011 264.415722,73.8365382 264.477516,73.9130117 C264.525212,73.9720451 264.572711,74.0312288 264.620051,74.0906254 C264.685646,74.1729276 264.750831,74.2554979 264.815131,74.337723 C264.846042,74.3772556 264.876866,74.4168531 264.908043,74.457087 C264.969718,74.5366794 265.031012,74.6165122 265.091934,74.696587 L265.091934,74.696587 L265.169471,74.7989046 C265.429166,75.1429441 265.681917,75.4913673 265.927747,75.8440534 C265.976249,75.9136383 266.024475,75.9833838 266.072308,76.0531144 C266.11792,76.1195992 266.163279,76.1862261 266.208624,76.2533426 C266.259343,76.3284176 266.30976,76.4036783 266.359523,76.478615 C266.40422,76.5459239 266.448674,76.6133793 266.49313,76.6813583 C266.546059,76.7622961 266.598626,76.8434367 266.650717,76.9246011 L266.650717,76.9246011 L266.801048,77.1609254 L266.801048,77.1609254 L266.927113,77.3624634 C266.942646,77.3874894 266.958145,77.4125323 266.973609,77.4375929 L266.973609,77.4375929 L267.052944,77.5667926 L267.052944,77.5667926 L267.164399,77.750489 L267.248983,77.8916642 L267.302823,77.9823379 C267.360493,78.0798029 267.41767,78.1775321 267.474603,78.2759567 C267.529055,78.3701081 267.583053,78.4644984 267.636224,78.5584827 C267.660732,78.6018025 267.685148,78.6451746 267.709856,78.6892874 C267.764253,78.786426 267.818159,78.8838034 267.871502,78.9812703 C267.916134,79.0628134 267.960418,79.1445167 268.004293,79.2262542 L268.004293,79.2262542 L268.077669,79.3637065 L268.256572,79.7052774 L268.309083,79.8073298 L268.486636,80.1587946 L268.486636,80.1587946 L268.566501,80.3202196 C268.617878,80.4247634 268.668723,80.5295529 268.718866,80.6342504 C268.757873,80.7157002 268.796563,80.7972978 268.834963,80.8791242 L268.834963,80.8791242 L268.903404,81.0258641 C268.95549,81.1382356 269.006962,81.2508688 269.057875,81.3638795 L269.057875,81.3638795 L269.137479,81.541926 L269.272093,81.8493614 L269.272093,81.8493614 L269.340629,82.0090888 L269.340629,82.0090888 L269.460504,82.2939633 C269.494125,82.3748626 269.527425,82.4558762 269.560247,82.5365972 C269.582464,82.5912299 269.60454,82.6459167 269.626772,82.7014108 L269.626772,82.7014108 L269.742079,82.9930578 C269.779734,83.0895797 269.816953,83.1862632 269.853743,83.2831435 L269.853743,83.2831435 L269.933838,83.4961623 L270.013273,83.7117593 C270.053054,83.8208511 270.092276,83.930131 270.130936,84.039562 C270.153997,84.1048289 270.176852,84.1701564 270.199449,84.2353824 L270.199449,84.2353824 L270.281518,84.4750418 L270.281518,84.4750418 L270.369938,84.7399249 C270.397018,84.8221484 270.423785,84.9044706 270.450304,84.9870943 C270.479629,85.0784326 270.50856,85.1698828 270.536944,85.2608877 L270.536944,85.2608877 L270.610853,85.5009599 C270.634328,85.5782175 270.657535,85.6555585 270.680545,85.7332219 C270.704325,85.8134977 270.727813,85.8938573 270.750925,85.9740224 L270.750925,85.9740224 L270.825313,86.2358741 C270.893064,86.4779987 270.958172,86.7208605 271.020601,86.964309 L271.020601,86.964309 L271.102167,87.2889402 L271.102167,87.2889402 L271.164945,87.5483119 L271.240868,87.8744003 L271.272396,88.0142111 C271.295577,88.117964 271.31827,88.2218232 271.340495,88.3258173 C271.353345,88.3859514 271.366029,88.4461182 271.378613,88.5065649 C271.39836,88.6014891 271.417722,88.6965097 271.436573,88.791107 L271.436573,88.791107 L271.495751,89.0950501 L271.530287,89.2795321 C271.548521,89.378385 271.566317,89.4773207 271.583763,89.5768215 C271.600449,89.6719611 271.616736,89.7671784 271.632583,89.8621858 C271.638222,89.8960093 271.643808,89.9298411 271.649297,89.9633547 L271.649297,89.9633547 L271.707778,90.3332069 L271.755444,90.6558643 C271.763483,90.7121506 271.771395,90.7684664 271.779109,90.8244285 L271.779109,90.8244285 L271.796463,90.9520593 L271.813345,91.0798305 C271.828315,91.1947029 271.842699,91.3096598 271.856509,91.4247047 C271.863569,91.4835513 271.870482,91.5424222 271.877247,91.6013156 C271.88951,91.7081459 271.901271,91.8150456 271.912525,91.9218508 C271.920207,91.9947775 271.927652,92.0677346 271.934885,92.1408486 L271.934885,92.1408486 L271.966486,92.4773135 C271.968434,92.4992287 271.970367,92.5211487 271.972238,92.5427119 C271.98475,92.6863924 271.996358,92.83018 272.007065,92.974093 C272.01315,93.0559077 272.018947,93.1377574 272.024477,93.2200692 C272.029544,93.2954352 272.034363,93.370829 272.038889,93.4455076 C272.057144,93.7466802 272.071441,94.0482487 272.081767,94.3500657 C272.083838,94.4105674 272.085753,94.4710855 272.087513,94.5319777 C272.089279,94.5930918 272.090881,94.654216 272.092315,94.7148294 C272.103243,95.1784211 272.104809,95.6426939 272.096903,96.1078979 C272.09531,96.2015115 272.093332,96.29514 272.090989,96.3880264 L272.090989,96.3880264 L272.082699,96.6710448 C272.080566,96.7347111 272.078259,96.798384 272.075806,96.86136 C272.071649,96.9678162 272.066998,97.0742855 272.06183,97.1811633 L272.06183,97.1811633 L272.047187,97.4602186 C272.042559,97.5420973 272.037636,97.6239793 272.032408,97.705863 C272.027196,97.7875915 272.021691,97.8693214 272.015876,97.9511854 C272.00893,98.0491532 272.001549,98.147115 271.993777,98.2446769 C271.987599,98.3222941 271.981145,98.3999045 271.974408,98.4777725 C271.966475,98.5695121 271.958167,98.6612473 271.949485,98.7528912 C271.942098,98.8309572 271.934434,98.9090162 271.926509,98.9870626 C271.916215,99.0883386 271.905464,99.1896045 271.894315,99.2903763 C271.842211,99.7613537 271.780219,100.232043 271.708275,100.702004 C271.700104,100.7554 271.691804,100.808786 271.683358,100.862235 L271.683358,100.862235 L271.646804,101.088745 C271.631432,101.182056 271.615653,101.275332 271.59953,101.368359 L271.59953,101.368359 L271.543126,101.684769 C271.495567,101.944569 271.444924,102.204118 271.391195,102.463374 L271.391195,102.463374 L271.337958,102.715445 C271.240872,103.166723 271.134412,103.617055 271.018418,104.066442 C270.953552,104.317736 270.885725,104.568649 270.81501,104.818865 C270.647286,105.412271 270.46289,106.00327 270.261648,106.591192 L270.261648,106.591192 L270.163525,106.873807 C270.070484,107.138058 269.974021,107.40167 269.873934,107.66508 C269.776355,107.921886 269.675492,108.178026 269.571593,108.432838 C269.53564,108.521012 269.499298,108.6091 269.462286,108.697756 C269.148087,109.450337 268.805148,110.196504 268.433131,110.934773 C268.377457,111.04526 268.321139,111.155577 268.264123,111.265774 C268.01811,111.741298 267.759916,112.213476 267.489448,112.68194 L267.489448,112.68194 L259.300636,126.865378 L279.409803,138.476168 L285.365132,128.161235 L285.751789,127.485868 C294.941426,111.296932 297.648551,96.5438923 293.873154,83.2267425 C290.045325,69.7246335 280.059683,58.3133658 263.916238,48.9929436 C254.230181,43.4006956 245.349723,40.0480359 237.274893,38.9349794 Z" id="Combined-Shape" fill="#FFFFFF"></path>
            </g>
        </g>
    </g>
</svg>